# xmcd
#
# Track frame offsets: 
#        150
#        15867
#        28615
#        42725
#        59845
#        81895
#        95852
#        114627
#        133560
#        145212
#        158545
#        170487
#        186647
#
# Disc length: 2744 seconds
#
# Revision: 1
# Processed by: cddbd v1.5.2PL0 Copyright (c) Steve Scherf et al.
# Submitted via: ExactAudioCopy v1.0b3
#
DISCID=b80ab60d
DTITLE=Michael Hopp - Simple Pleasures
DYEAR=1994
DGENRE=New Age
TTITLE0=The Children's Waltz
TTITLE1=Lincoln's Lament
TTITLE2=Silver Screen Romance
TTITLE3=Roses on Toast
TTITLE4=Moonlight Bossa
TTITLE5=October
TTITLE6=Circus Dream
TTITLE7=See You In My Dreams
TTITLE8=Magda's Waltz
TTITLE9=Through the Window
TTITLE10=Homeland Theme
TTITLE11=The Parting
TTITLE12=Elegy
EXTD=YEAR: 1994
EXTT0=
EXTT1=
EXTT2=
EXTT3=
EXTT4=
EXTT5=
EXTT6=
EXTT7=
EXTT8=
EXTT9=
EXTT10=
EXTT11=
EXTT12=
PLAYORDER=
